<?xml version="1.0" standalone="no"?><!DOCTYPE svg PUBLIC "-//W3C//DTD SVG 1.1//EN" "http://www.w3.org/Graphics/SVG/1.1/DTD/svg11.dtd"><svg height="156" node-id="1" sillyvg="true" template-height="156" template-width="149" version="1.1" viewBox="0 0 149 156" width="149" xmlns="http://www.w3.org/2000/svg" xmlns:xlink="http://www.w3.org/1999/xlink"><defs node-id="131"><clipPath id="_clip1" node-id="7"><path d="M 80.05 30.49 C 80.05 29.00 78.84 27.80 77.35 27.80 L 71.96 27.80 C 70.47 27.80 69.26 29.00 69.26 30.49 L 69.26 62.57 C 69.26 64.06 70.47 65.27 71.96 65.27 L 77.35 65.27 C 78.84 65.27 80.05 64.06 80.05 62.57 L 80.05 30.49 Z" fill="#000000" fill-rule="nonzero" node-id="134" stroke="none" target-height="37.473022" target-width="10.791992" target-x="69.257324" target-y="27.797363"></path></clipPath><clipPath id="_clip2" node-id="23"><path d="M 121.43 67.24 C 121.43 62.61 117.67 58.86 113.05 58.86 L 36.36 58.86 C 31.74 58.86 27.99 62.61 27.99 67.24 L 27.99 100.76 L 121.43 100.76 L 121.43 67.24 Z" fill="#000000" fill-rule="nonzero" node-id="138" stroke="none" target-height="41.900635" target-width="93.44031" target-x="27.985718" target-y="58.85675"></path></clipPath><clipPath id="_clip3" node-id="28"><path d="M 17.92 75.24 C 17.92 75.24 22.60 66.12 30.49 66.12 C 38.38 66.12 35.80 72.80 44.39 72.80 C 52.98 72.80 51.27 66.33 58.68 66.33 C 66.10 66.33 64.11 72.20 75.14 72.20 C 86.17 72.20 82.36 66.46 90.56 66.46 C 98.77 66.46 97.98 72.20 105.31 72.20 C 112.63 72.20 112.07 66.51 120.67 66.51 C 129.26 66.51 133.17 73.12 133.17 73.12 L 133.17 49.71 L 18.16 50.72 C 18.16 50.72 18.16 75.18 17.92 75.24 Z" fill="#000000" fill-rule="nonzero" node-id="142" stroke="none" target-height="25.535034" target-width="115.2522" target-x="17.917603" target-y="49.70581"></path></clipPath><clipPath id="_clip4" node-id="39"><path d="M 134.20 106.36 C 134.20 100.46 129.41 95.67 123.51 95.67 L 25.71 95.67 C 19.81 95.67 15.02 100.46 15.02 106.36 L 15.02 149.14 L 134.20 149.14 L 134.20 106.36 Z" fill="#000000" fill-rule="nonzero" node-id="146" stroke="none" target-height="53.471497" target-width="119.18396" target-x="15.016602" target-y="95.6712"></path></clipPath><clipPath id="_clip5" node-id="44"><path d="M 5.77 115.94 C 5.77 115.94 11.45 104.90 21.00 104.90 C 30.55 104.90 27.42 112.98 37.83 112.98 C 48.23 112.98 46.15 105.16 55.14 105.16 C 64.12 105.16 61.70 112.27 75.05 112.27 C 88.42 112.27 83.81 105.31 93.73 105.31 C 103.67 105.31 102.72 112.27 111.58 112.27 C 120.45 112.27 119.78 105.37 130.19 105.37 C 140.58 105.37 145.32 113.37 145.32 113.37 L 145.32 85.02 L 6.06 86.25 C 6.06 86.25 6.06 115.87 5.77 115.94 Z" fill="#000000" fill-rule="nonzero" node-id="150" stroke="none" target-height="30.917358" target-width="139.54517" target-x="5.7749023" target-y="85.02429"></path></clipPath><clipPath id="_clip6" node-id="58"><path d="M 27.62 80.20 C 30.23 80.20 32.34 84.59 32.34 88.24 C 32.34 91.90 30.23 93.43 27.62 93.43 C 25.01 93.43 22.89 91.90 22.89 88.24 C 22.89 84.59 25.01 80.20 27.62 80.20 Z" fill="#000000" fill-rule="nonzero" node-id="154" stroke="none" target-height="13.239502" target-width="9.450684" target-x="22.893066" target-y="80.195435"></path></clipPath><clipPath id="_clip7" node-id="68"><path d="M 43.83 43.73 C 46.44 43.73 48.56 48.13 48.56 51.78 C 48.56 55.43 46.44 56.97 43.83 56.97 C 41.22 56.97 39.11 55.43 39.11 51.78 C 39.11 48.13 41.22 43.73 43.83 43.73 Z" fill="#000000" fill-rule="nonzero" node-id="158" stroke="none" target-height="13.239502" target-width="9.450684" target-x="39.105713" target-y="43.730896"></path></clipPath><clipPath id="_clip8" node-id="78"><path d="M 59.19 80.20 C 61.80 80.20 63.91 84.59 63.91 88.24 C 63.91 91.90 61.80 93.43 59.19 93.43 C 56.58 93.43 54.46 91.90 54.46 88.24 C 54.46 84.59 56.58 80.20 59.19 80.20 Z" fill="#000000" fill-rule="nonzero" node-id="162" stroke="none" target-height="13.239502" target-width="9.450684" target-x="54.463623" target-y="80.195435"></path></clipPath><clipPath id="_clip9" node-id="88"><path d="M 90.76 80.20 C 93.37 80.20 95.48 84.59 95.48 88.24 C 95.48 91.90 93.37 93.43 90.76 93.43 C 88.15 93.43 86.03 91.90 86.03 88.24 C 86.03 84.59 88.15 80.20 90.76 80.20 Z" fill="#000000" fill-rule="nonzero" node-id="166" stroke="none" target-height="13.239502" target-width="9.450684" target-x="86.033936" target-y="80.195435"></path></clipPath><clipPath id="_clip10" node-id="98"><path d="M 122.34 80.20 C 124.95 80.20 127.06 84.59 127.06 88.24 C 127.06 91.90 124.95 93.43 122.34 93.43 C 119.73 93.43 117.61 91.90 117.61 88.24 C 117.61 84.59 119.73 80.20 122.34 80.20 Z" fill="#000000" fill-rule="nonzero" node-id="170" stroke="none" target-height="13.239502" target-width="9.450684" target-x="117.611206" target-y="80.195435"></path></clipPath><clipPath id="_clip11" node-id="108"><path d="M 105.55 43.73 C 108.16 43.73 110.27 48.13 110.27 51.78 C 110.27 55.43 108.16 56.97 105.55 56.97 C 102.94 56.97 100.82 55.43 100.82 51.78 C 100.82 48.13 102.94 43.73 105.55 43.73 Z" fill="#000000" fill-rule="nonzero" node-id="174" stroke="none" target-height="13.239502" target-width="9.450684" target-x="100.82422" target-y="43.730896"></path></clipPath><clipPath id="_clip12" node-id="121"><path d="M 145.83 145.85 C 145.83 144.57 144.75 143.53 143.42 143.53 L 5.41 143.53 C 4.08 143.53 3.00 144.57 3.00 145.85 L 3.00 146.51 C 3.00 149.99 5.94 152.82 9.55 152.82 L 139.28 152.82 C 142.90 152.82 145.83 149.99 145.83 146.51 L 145.83 145.85 Z" fill="#000000" fill-rule="nonzero" node-id="178" stroke="none" target-height="9.289734" target-width="142.82935" target-x="3.0024414" target-y="143.53253"></path></clipPath></defs><g node-id="438"><g node-id="439"><g node-id="440"><path d="M 80.05 30.49 C 80.05 29.00 78.84 27.80 77.35 27.80 L 71.96 27.80 C 70.47 27.80 69.26 29.00 69.26 30.49 L 69.26 62.57 C 69.26 64.06 70.47 65.27 71.96 65.27 L 77.35 65.27 C 78.84 65.27 80.05 64.06 80.05 62.57 L 80.05 30.49 Z" fill="#f3fef3" fill-rule="evenodd" group-id="1,2,3" node-id="190" stroke="none" target-height="37.473022" target-width="10.791992" target-x="69.257324" target-y="27.797363"></path><g node-id="452"><g clip-path="url(#_clip1)" group-id="1,2,3,15" node-id="192"><path d="M 64.87 41.67 L 87.24 28.79 C 88.22 28.23 88.59 26.90 88.09 25.83 C 87.58 24.75 86.37 24.33 85.39 24.90 L 63.02 37.77 C 62.05 38.33 61.67 39.66 62.18 40.74 C 62.69 41.81 63.90 42.23 64.87 41.67 Z" fill="#f95c98" fill-rule="evenodd" group-id="1,2,3,15,25" node-id="196" stroke="none" target-height="17.897156" target-width="26.928345" target-x="61.665405" target-y="24.329895"></path><path d="M 64.87 50.14 L 87.24 37.27 C 88.22 36.71 88.59 35.37 88.09 34.30 C 87.58 33.22 86.37 32.80 85.39 33.37 L 63.02 46.24 C 62.05 46.80 61.67 48.14 62.18 49.21 C 62.69 50.29 63.90 50.70 64.87 50.14 Z" fill="#f95c98" fill-rule="evenodd" group-id="1,2,3,15,26" node-id="201" stroke="none" target-height="17.897156" target-width="26.928345" target-x="61.665405" target-y="32.803223"></path><path d="M 64.87 58.61 L 87.24 45.74 C 88.22 45.18 88.59 43.85 88.09 42.77 C 87.58 41.70 86.37 41.28 85.39 41.84 L 63.02 54.72 C 62.05 55.28 61.67 56.61 62.18 57.68 C 62.69 58.76 63.90 59.17 64.87 58.61 Z" fill="#f95c98" fill-rule="evenodd" group-id="1,2,3,15,27" node-id="206" stroke="none" target-height="17.897156" target-width="26.928345" target-x="61.665405" target-y="41.27655"></path><path d="M 64.87 67.09 L 87.24 54.21 C 88.22 53.65 88.59 52.32 88.09 51.25 C 87.58 50.17 86.37 49.75 85.39 50.32 L 63.02 63.19 C 62.05 63.75 61.67 65.08 62.18 66.16 C 62.69 67.23 63.90 67.65 64.87 67.09 Z" fill="#f95c98" fill-rule="evenodd" group-id="1,2,3,15,28" node-id="211" stroke="none" target-height="17.897156" target-width="26.928345" target-x="61.665405" target-y="49.74994"></path><path d="M 81.45 27.35 L 75.18 27.35 C 76.66 27.64 76.74 29.47 76.74 30.54 L 76.74 65.27 L 81.45 65.27 L 81.45 27.35 Z" fill="#382422" fill-opacity="0.5" fill-rule="evenodd" group-id="1,2,3,15,29" node-id="216" stroke="none" target-height="37.920837" target-width="6.2751465" target-x="75.17798" target-y="27.347595"></path></g></g><path d="M 83.05 30.49 C 83.05 27.35 80.49 24.80 77.35 24.80 L 71.96 24.80 C 68.81 24.80 66.26 27.35 66.26 30.49 C 66.26 30.49 66.26 62.57 66.26 62.57 C 66.26 65.72 68.81 68.27 71.96 68.27 L 77.35 68.27 C 80.49 68.27 83.05 65.72 83.05 62.57 L 83.05 30.49 Z M 80.05 30.49 C 80.05 29.00 78.84 27.80 77.35 27.80 L 71.96 27.80 C 70.47 27.80 69.26 29.00 69.26 30.49 L 69.26 62.57 C 69.26 64.06 70.47 65.27 71.96 65.27 L 77.35 65.27 C 78.84 65.27 80.05 64.06 80.05 62.57 L 80.05 30.49 Z" fill="#6b0600" fill-rule="evenodd" group-id="1,2,3" node-id="220" stroke="none" target-height="43.46997" target-width="16.79248" target-x="66.25708" target-y="24.79895"></path></g><g node-id="441"><path d="M 121.43 67.24 C 121.43 62.61 117.67 58.86 113.05 58.86 L 36.36 58.86 C 31.74 58.86 27.99 62.61 27.99 67.24 L 27.99 100.76 L 121.43 100.76 L 121.43 67.24 Z" fill="#ffb748" fill-rule="evenodd" group-id="1,2,4" node-id="225" stroke="none" target-height="41.900635" target-width="93.44031" target-x="27.985718" target-y="58.85675"></path><g node-id="453"><g clip-path="url(#_clip2)" group-id="1,2,4,16" node-id="227"><path d="M 17.92 75.24 C 17.92 75.24 22.60 66.12 30.49 66.12 C 38.38 66.12 35.80 72.80 44.39 72.80 C 52.98 72.80 51.27 66.33 58.68 66.33 C 66.10 66.33 64.11 72.20 75.14 72.20 C 86.17 72.20 82.36 66.46 90.56 66.46 C 98.77 66.46 97.98 72.20 105.31 72.20 C 112.63 72.20 112.07 66.51 120.67 66.51 C 129.26 66.51 133.17 73.12 133.17 73.12 L 133.17 49.71 L 18.16 50.72 C 18.16 50.72 18.16 75.18 17.92 75.24 Z" fill="#ffc7c2" fill-rule="evenodd" group-id="1,2,4,16,30" node-id="231" stroke="none" target-height="25.535034" target-width="115.2522" target-x="17.917603" target-y="49.70581"></path><g clip-path="url(#_clip3)" group-id="1,2,4,16,30,48" node-id="235"><path d="M 25.40 75.37 C 25.40 75.37 25.08 66.29 32.97 66.29 C 40.86 66.29 38.28 72.97 46.87 72.97 C 55.46 72.97 53.74 66.51 61.16 66.51 C 68.58 66.51 66.59 72.38 77.62 72.38 C 88.65 72.38 84.84 66.63 93.04 66.63 C 101.25 66.63 100.46 72.38 107.78 72.38 C 113.86 72.38 114.52 68.46 119.48 67.12 C 120.50 66.85 121.56 66.71 123.09 67.41 C 123.52 67.61 119.18 60.29 113.35 60.29 L 35.24 60.29 C 32.29 60.29 25.50 64.57 25.50 69.81 C 25.50 72.86 25.49 75.35 25.40 75.37 Z" fill="#ff968d" fill-rule="evenodd" group-id="1,2,4,16,30,48,50" node-id="237" stroke="none" target-height="15.074829" target-width="98.43787" target-x="25.080566" target-y="60.291077"></path></g><path d="M 15.96 74.81 C 15.97 74.73 15.98 74.58 15.98 74.45 C 16.16 70.46 16.16 50.72 16.16 50.72 C 16.16 49.62 17.04 48.73 18.14 48.72 L 133.15 47.71 C 133.68 47.71 134.20 47.91 134.58 48.29 C 134.95 48.66 135.17 49.18 135.17 49.71 L 135.17 73.12 C 135.17 74.02 134.56 74.81 133.70 75.05 C 132.83 75.28 131.90 74.91 131.45 74.13 C 131.45 74.13 128.06 68.51 120.67 68.51 C 116.16 68.51 114.55 70.38 112.58 71.81 C 110.80 73.12 108.80 74.20 105.31 74.20 C 101.78 74.20 99.81 73.10 98.09 71.76 C 96.24 70.34 94.82 68.46 90.56 68.46 C 87.32 68.46 86.47 69.62 85.32 70.75 C 83.63 72.42 81.56 74.20 75.14 74.20 C 68.89 74.20 66.34 72.49 64.30 70.82 C 62.81 69.61 61.73 68.33 58.68 68.33 C 55.75 68.33 54.66 69.68 53.41 70.96 C 51.55 72.88 49.50 74.79 44.39 74.79 C 39.19 74.79 37.36 72.78 35.65 70.75 C 34.55 69.46 33.55 68.12 30.49 68.12 C 27.85 68.12 25.66 69.38 23.96 70.85 C 21.40 73.04 19.91 75.74 19.72 76.11 C 19.33 76.91 18.71 77.11 18.33 77.20 C 17.58 77.35 16.80 77.06 16.32 76.45 C 15.96 75.98 15.84 75.38 15.96 74.81 Z M 17.92 75.22 C 18.18 74.73 22.83 66.12 30.49 66.12 C 38.38 66.12 35.80 72.80 44.39 72.80 C 52.98 72.80 51.27 66.33 58.68 66.33 C 66.10 66.33 64.11 72.20 75.14 72.20 C 86.17 72.20 82.36 66.46 90.56 66.46 C 98.77 66.46 97.98 72.20 105.31 72.20 C 112.63 72.20 112.07 66.51 120.67 66.51 C 129.26 66.51 133.17 73.12 133.17 73.12 L 133.17 49.71 L 18.16 50.72 C 18.16 50.72 18.16 74.39 17.92 75.22 L 17.92 75.24 C 17.92 75.23 17.92 75.23 17.92 75.22 L 17.92 75.22 Z" fill="#6b0600" fill-rule="evenodd" group-id="1,2,4,16,30" node-id="241" stroke="none" target-height="29.646423" target-width="119.32764" target-x="15.838745" target-y="47.706665"></path><path d="M 24.58 93.25 C 24.58 93.25 83.96 94.08 98.99 90.66 C 114.02 87.24 114.61 78.29 112.81 56.47 C 119.63 54.89 123.95 57.36 125.15 64.90 C 125.15 64.90 124.25 92.57 124.40 96.79 C 127.04 96.79 23.98 96.79 23.98 96.79 C 23.98 96.79 24.56 93.28 24.58 93.25 Z" fill="#2d2d2d" fill-opacity="0.4" fill-rule="evenodd" group-id="1,2,4,16,31" node-id="246" stroke="none" target-height="41.89789" target-width="103.06201" target-x="23.981323" target-y="54.891113"></path></g></g><path d="M 124.42 67.24 C 124.42 60.96 119.32 55.86 113.05 55.86 L 36.36 55.86 C 30.09 55.86 24.99 60.96 24.99 67.24 L 24.99 100.76 C 24.99 102.41 26.33 103.76 27.99 103.76 L 121.43 103.76 C 123.08 103.76 124.42 102.41 124.42 100.76 L 124.42 67.24 Z M 121.43 67.24 C 121.43 62.61 117.67 58.86 113.05 58.86 L 36.36 58.86 C 31.74 58.86 27.99 62.61 27.99 67.24 L 27.99 100.76 L 121.43 100.76 L 121.43 67.24 Z" fill="#6b0600" fill-rule="evenodd" group-id="1,2,4" node-id="250" stroke="none" target-height="47.900574" target-width="99.433716" target-x="24.989014" target-y="55.85669"></path></g><g node-id="442"><path d="M 134.20 106.36 C 134.20 100.46 129.41 95.67 123.51 95.67 L 25.71 95.67 C 19.81 95.67 15.02 100.46 15.02 106.36 L 15.02 149.14 L 134.20 149.14 L 134.20 106.36 Z" fill="#ffb748" fill-rule="evenodd" group-id="1,2,5" node-id="255" stroke="none" target-height="53.471497" target-width="119.18396" target-x="15.016602" target-y="95.6712"></path><g node-id="454"><g clip-path="url(#_clip4)" group-id="1,2,5,17" node-id="257"><path d="M 5.77 115.94 C 5.77 115.94 11.45 104.90 21.00 104.90 C 30.55 104.90 27.42 112.98 37.83 112.98 C 48.23 112.98 46.15 105.16 55.14 105.16 C 64.12 105.16 61.70 112.27 75.05 112.27 C 88.42 112.27 83.81 105.31 93.73 105.31 C 103.67 105.31 102.72 112.27 111.58 112.27 C 120.45 112.27 119.78 105.37 130.19 105.37 C 140.58 105.37 145.32 113.37 145.32 113.37 L 145.32 85.02 L 6.06 86.25 C 6.06 86.25 6.06 115.87 5.77 115.94 Z" fill="#ffc6c2" fill-rule="evenodd" group-id="1,2,5,17,32" node-id="261" stroke="none" target-height="30.917358" target-width="139.54517" target-x="5.7749023" target-y="85.02429"></path><g clip-path="url(#_clip5)" group-id="1,2,5,17,32,49" node-id="265"><path d="M 12.42 116.16 C 12.42 116.16 12.03 104.55 21.84 104.55 C 31.64 104.55 28.44 113.09 39.12 113.09 C 49.80 113.09 47.66 104.82 56.89 104.82 C 66.11 104.82 63.63 112.34 77.34 112.34 C 91.06 112.34 86.32 104.98 96.51 104.98 C 106.71 104.98 105.74 112.34 114.84 112.34 C 122.40 112.34 122.04 106.32 128.48 106.25 C 130.99 106.22 132.97 106.37 134.87 107.27 C 133.60 103.47 129.00 96.86 121.76 96.86 L 24.66 96.86 C 21.00 96.86 12.56 102.34 12.56 109.05 C 12.56 112.95 12.54 116.13 12.42 116.16 Z" fill="#ff968d" fill-rule="evenodd" group-id="1,2,5,17,32,49,51" node-id="267" stroke="none" target-height="19.29663" target-width="122.843506" target-x="12.031006" target-y="96.86206"></path></g><path d="M 3.82 115.48 C 3.83 115.39 3.85 115.18 3.85 115.01 C 4.07 110.17 4.07 86.25 4.07 86.25 C 4.07 85.15 4.96 84.26 6.05 84.25 L 145.30 83.03 C 145.83 83.02 146.35 83.24 146.73 83.61 C 147.10 83.98 147.32 84.49 147.32 85.02 L 147.32 113.37 C 147.32 114.27 146.71 115.06 145.84 115.30 C 144.97 115.54 144.05 115.17 143.60 114.39 C 143.60 114.39 139.38 107.37 130.19 107.37 C 124.58 107.37 122.59 109.67 120.14 111.45 C 118.04 112.99 115.70 114.27 111.58 114.27 C 107.44 114.27 105.13 112.96 103.11 111.40 C 100.80 109.62 99.02 107.31 93.73 107.31 C 89.63 107.31 88.54 108.77 87.08 110.21 C 85.09 112.18 82.64 114.27 75.05 114.27 C 67.65 114.27 64.62 112.23 62.20 110.26 C 60.33 108.75 58.97 107.16 55.14 107.16 C 51.42 107.16 50.03 108.85 48.45 110.46 C 46.25 112.73 43.84 114.98 37.83 114.98 C 31.72 114.98 29.59 112.61 27.57 110.23 C 26.17 108.59 24.88 106.90 21.00 106.90 C 17.70 106.90 14.95 108.47 12.81 110.30 C 9.67 113.00 7.83 116.33 7.58 116.79 C 7.20 117.61 6.57 117.81 6.19 117.90 C 5.43 118.06 4.65 117.77 4.19 117.15 C 3.81 116.67 3.69 116.06 3.82 115.48 Z M 5.78 115.91 C 6.10 115.32 11.72 104.90 21.00 104.90 C 30.55 104.90 27.42 112.98 37.83 112.98 C 48.23 112.98 46.15 105.16 55.14 105.16 C 64.12 105.16 61.70 112.27 75.05 112.27 C 88.42 112.27 83.81 105.31 93.73 105.31 C 103.67 105.31 102.72 112.27 111.58 112.27 C 120.45 112.27 119.78 105.37 130.19 105.37 C 140.58 105.37 145.32 113.37 145.32 113.37 L 145.32 85.02 L 6.06 86.25 C 6.06 86.25 6.06 114.91 5.78 115.91 L 5.77 115.94 C 5.78 115.93 5.78 115.93 5.78 115.91 L 5.78 115.91 Z" fill="#6b0600" fill-rule="evenodd" group-id="1,2,5,17,32" node-id="271" stroke="none" target-height="35.035156" target-width="143.62671" target-x="3.6885986" target-y="83.02246"></path><path d="M 10.60 122.98 L 139.31 122.98 L 139.31 130.65 L 10.60 130.65 Z" fill="#fefdff" fill-rule="evenodd" group-id="1,2,5,17,33" node-id="276" stroke="none" target-height="7.669861" target-width="128.71655" target-x="10.596069" target-y="122.979065"></path><path d="M 141.31 122.98 C 141.31 121.87 140.41 120.97 139.31 120.97 L 10.60 120.97 C 9.49 120.97 8.59 121.87 8.59 122.98 L 8.59 130.64 C 8.59 131.75 9.49 132.65 10.60 132.65 L 139.31 132.65 C 140.41 132.65 141.31 131.75 141.31 130.64 L 141.31 122.98 Z M 139.31 122.98 L 10.60 122.98 L 10.60 130.64 L 139.31 130.64 L 139.31 122.98 Z" fill="#6b0600" fill-rule="evenodd" group-id="1,2,5,17,33" node-id="278" stroke="none" target-height="11.67395" target-width="132.71619" target-x="8.592407" target-y="120.97473"></path><path d="M 14.47 140.21 C 14.47 140.21 87.53 141.23 106.03 137.02 C 124.52 132.81 125.25 121.80 123.03 94.95 C 131.42 93.01 136.74 96.05 138.21 105.32 C 138.21 105.32 137.11 139.37 137.29 144.56 C 140.54 144.56 13.73 144.56 13.73 144.56 C 13.73 144.56 14.45 140.24 14.47 140.21 Z" fill="#2d2d2d" fill-opacity="0.4" fill-rule="evenodd" group-id="1,2,5,17,34" node-id="283" stroke="none" target-height="51.55432" target-width="126.815186" target-x="13.727661" target-y="93.00574"></path></g></g><path d="M 137.20 106.36 C 137.20 98.81 131.06 92.67 123.51 92.67 L 25.71 92.67 C 18.16 92.67 12.01 98.81 12.01 106.36 L 12.01 149.14 C 12.01 150.80 13.36 152.14 15.02 152.14 L 134.20 152.14 C 135.86 152.14 137.20 150.80 137.20 149.14 L 137.20 106.36 Z M 134.20 106.36 C 134.20 100.46 129.41 95.67 123.51 95.67 L 25.71 95.67 C 19.81 95.67 15.02 100.46 15.02 106.36 L 15.02 149.14 L 134.20 149.14 L 134.20 106.36 Z" fill="#6b0600" fill-rule="evenodd" group-id="1,2,5" node-id="287" stroke="none" target-height="59.46869" target-width="125.187744" target-x="12.014648" target-y="92.67255"></path></g><g node-id="443"><path d="M 27.62 80.20 C 30.23 80.20 32.34 84.59 32.34 88.24 C 32.34 91.90 30.23 93.43 27.62 93.43 C 25.01 93.43 22.89 91.90 22.89 88.24 C 22.89 84.59 25.01 80.20 27.62 80.20 Z" fill="#87261a" fill-rule="evenodd" group-id="1,2,6" node-id="292" stroke="none" target-height="13.239502" target-width="9.450684" target-x="22.893066" target-y="80.195435"></path><g node-id="455"><g clip-path="url(#_clip6)" group-id="1,2,6,18" node-id="294"><path d="M 26.72 79.09 C 29.33 79.09 31.44 83.49 31.44 87.14 C 31.44 90.80 29.33 92.33 26.72 92.33 C 24.11 92.33 21.99 90.80 21.99 87.14 C 21.99 83.49 24.11 79.09 26.72 79.09 Z" fill="#d43200" fill-rule="evenodd" group-id="1,2,6,18,35" node-id="298" stroke="none" target-height="13.239502" target-width="9.450684" target-x="21.993286" target-y="79.09247"></path><path d="M 27.22 79.95 C 24.58 82.57 24.03 85.52 23.84 87.70 C 24.91 87.01 26.75 87.31 26.84 89.14 C 26.93 90.72 25.02 91.59 24.20 90.98 C 24.55 92.04 25.44 92.71 27.22 93.71 C 24.61 93.71 22.49 91.66 22.49 88.00 C 22.49 84.35 24.61 79.95 27.22 79.95 Z" fill="#ff6d64" fill-rule="evenodd" group-id="1,2,6,18,36" node-id="303" stroke="none" target-height="13.757935" target-width="4.7280273" target-x="22.493164" target-y="79.95416"></path></g></g><path d="M 27.62 77.19 C 26.09 77.19 24.59 77.85 23.32 79.13 C 21.34 81.11 19.89 84.90 19.89 88.24 C 19.89 91.08 20.84 93.04 22.17 94.35 C 23.58 95.73 25.48 96.44 27.62 96.44 C 29.76 96.44 31.66 95.73 33.06 94.35 C 34.39 93.04 35.34 91.08 35.34 88.24 C 35.34 84.90 33.90 81.11 31.91 79.13 C 30.64 77.85 29.15 77.19 27.62 77.19 Z M 27.62 80.20 C 30.23 80.20 32.34 84.59 32.34 88.24 C 32.34 91.90 30.23 93.43 27.62 93.43 C 25.01 93.43 22.89 91.90 22.89 88.24 C 22.89 84.59 25.01 80.20 27.62 80.20 Z" fill="#6b0600" fill-rule="evenodd" group-id="1,2,6" node-id="307" stroke="none" target-height="19.241028" target-width="15.45105" target-x="19.892944" target-y="77.19464"></path></g><g node-id="444"><path d="M 43.83 43.73 C 46.44 43.73 48.56 48.13 48.56 51.78 C 48.56 55.43 46.44 56.97 43.83 56.97 C 41.22 56.97 39.11 55.43 39.11 51.78 C 39.11 48.13 41.22 43.73 43.83 43.73 Z" fill="#87261a" fill-rule="evenodd" group-id="1,2,7" node-id="312" stroke="none" target-height="13.239502" target-width="9.450684" target-x="39.105713" target-y="43.730896"></path><g node-id="456"><g clip-path="url(#_clip7)" group-id="1,2,7,19" node-id="314"><path d="M 42.93 42.63 C 45.54 42.63 47.66 47.02 47.66 50.67 C 47.66 54.33 45.54 55.87 42.93 55.87 C 40.32 55.87 38.21 54.33 38.21 50.67 C 38.21 47.02 40.32 42.63 42.93 42.63 Z" fill="#d43200" fill-rule="evenodd" group-id="1,2,7,19,37" node-id="318" stroke="none" target-height="13.239502" target-width="9.450684" target-x="38.205933" target-y="42.62793"></path><path d="M 43.43 43.49 C 40.80 46.11 40.24 49.06 40.05 51.23 C 41.13 50.54 42.96 50.85 43.06 52.68 C 43.14 54.26 41.23 55.12 40.41 54.51 C 40.76 55.57 41.65 56.24 43.43 57.25 C 40.82 57.25 38.71 55.19 38.71 51.54 C 38.71 47.88 40.82 43.49 43.43 43.49 Z" fill="#ff6d64" fill-rule="evenodd" group-id="1,2,7,19,38" node-id="323" stroke="none" target-height="13.757935" target-width="4.7280273" target-x="38.70581" target-y="43.489624"></path></g></g><path d="M 43.83 40.73 C 42.30 40.73 40.81 41.39 39.54 42.66 C 37.55 44.65 36.11 48.43 36.11 51.78 C 36.11 54.61 37.06 56.58 38.39 57.88 C 39.79 59.26 41.69 59.97 43.83 59.97 C 45.97 59.97 47.87 59.26 49.28 57.88 C 50.60 56.58 51.56 54.61 51.56 51.78 C 51.56 48.43 50.11 44.65 48.13 42.66 C 46.85 41.39 45.36 40.73 43.83 40.73 Z M 43.83 43.73 C 46.44 43.73 48.56 48.13 48.56 51.78 C 48.56 55.43 46.44 56.97 43.83 56.97 C 41.22 56.97 39.11 55.43 39.11 51.78 C 39.11 48.13 41.22 43.73 43.83 43.73 Z" fill="#6b0600" fill-rule="evenodd" group-id="1,2,7" node-id="327" stroke="none" target-height="19.241028" target-width="15.45105" target-x="36.10559" target-y="40.730103"></path></g><g node-id="445"><path d="M 59.19 80.20 C 61.80 80.20 63.91 84.59 63.91 88.24 C 63.91 91.90 61.80 93.43 59.19 93.43 C 56.58 93.43 54.46 91.90 54.46 88.24 C 54.46 84.59 56.58 80.20 59.19 80.20 Z" fill="#87261a" fill-rule="evenodd" group-id="1,2,8" node-id="332" stroke="none" target-height="13.239502" target-width="9.450684" target-x="54.463623" target-y="80.195435"></path><g node-id="457"><g clip-path="url(#_clip8)" group-id="1,2,8,20" node-id="334"><path d="M 58.29 79.09 C 60.90 79.09 63.01 83.49 63.01 87.14 C 63.01 90.80 60.90 92.33 58.29 92.33 C 55.68 92.33 53.56 90.80 53.56 87.14 C 53.56 83.49 55.68 79.09 58.29 79.09 Z" fill="#d43200" fill-rule="evenodd" group-id="1,2,8,20,39" node-id="338" stroke="none" target-height="13.239502" target-width="9.450684" target-x="53.563843" target-y="79.09247"></path><path d="M 58.79 79.95 C 56.15 82.57 55.60 85.52 55.41 87.70 C 56.48 87.01 58.32 87.31 58.41 89.14 C 58.50 90.72 56.59 91.59 55.77 90.98 C 56.12 92.04 57.01 92.71 58.79 93.71 C 56.18 93.71 54.06 91.66 54.06 88.00 C 54.06 84.35 56.18 79.95 58.79 79.95 Z" fill="#ff6d64" fill-rule="evenodd" group-id="1,2,8,20,40" node-id="343" stroke="none" target-height="13.757935" target-width="4.7280273" target-x="54.06372" target-y="79.95416"></path></g></g><path d="M 59.19 77.19 C 57.66 77.19 56.17 77.85 54.89 79.13 C 52.91 81.11 51.46 84.90 51.46 88.24 C 51.46 91.08 52.42 93.04 53.74 94.35 C 55.15 95.73 57.05 96.44 59.19 96.44 C 61.33 96.44 63.23 95.73 64.63 94.35 C 65.96 93.04 66.91 91.08 66.91 88.24 C 66.91 84.90 65.47 81.11 63.49 79.13 C 62.21 77.85 60.72 77.19 59.19 77.19 Z M 59.19 80.20 C 61.80 80.20 63.91 84.59 63.91 88.24 C 63.91 91.90 61.80 93.43 59.19 93.43 C 56.58 93.43 54.46 91.90 54.46 88.24 C 54.46 84.59 56.58 80.20 59.19 80.20 Z" fill="#6b0600" fill-rule="evenodd" group-id="1,2,8" node-id="347" stroke="none" target-height="19.241028" target-width="15.45105" target-x="51.4635" target-y="77.19464"></path></g><g node-id="446"><path d="M 90.76 80.20 C 93.37 80.20 95.48 84.59 95.48 88.24 C 95.48 91.90 93.37 93.43 90.76 93.43 C 88.15 93.43 86.03 91.90 86.03 88.24 C 86.03 84.59 88.15 80.20 90.76 80.20 Z" fill="#87261a" fill-rule="evenodd" group-id="1,2,9" node-id="352" stroke="none" target-height="13.239502" target-width="9.450684" target-x="86.033936" target-y="80.195435"></path><g node-id="458"><g clip-path="url(#_clip9)" group-id="1,2,9,21" node-id="354"><path d="M 89.86 79.09 C 92.47 79.09 94.58 83.49 94.58 87.14 C 94.58 90.80 92.47 92.33 89.86 92.33 C 87.25 92.33 85.13 90.80 85.13 87.14 C 85.13 83.49 87.25 79.09 89.86 79.09 Z" fill="#d43200" fill-rule="evenodd" group-id="1,2,9,21,41" node-id="358" stroke="none" target-height="13.239502" target-width="9.450684" target-x="85.134155" target-y="79.09247"></path><path d="M 90.36 79.95 C 87.72 82.57 87.17 85.52 86.98 87.70 C 88.05 87.01 89.89 87.31 89.98 89.14 C 90.07 90.72 88.16 91.59 87.34 90.98 C 87.69 92.04 88.58 92.71 90.36 93.71 C 87.75 93.71 85.63 91.66 85.63 88.00 C 85.63 84.35 87.75 79.95 90.36 79.95 Z" fill="#ff6d64" fill-rule="evenodd" group-id="1,2,9,21,42" node-id="363" stroke="none" target-height="13.757935" target-width="4.7280273" target-x="85.63403" target-y="79.95416"></path></g></g><path d="M 90.76 77.19 C 89.23 77.19 87.74 77.85 86.46 79.13 C 84.48 81.11 83.03 84.90 83.03 88.24 C 83.03 91.08 83.99 93.04 85.31 94.35 C 86.72 95.73 88.62 96.44 90.76 96.44 C 92.90 96.44 94.80 95.73 96.20 94.35 C 97.53 93.04 98.48 91.08 98.48 88.24 C 98.48 84.90 97.04 81.11 95.06 79.13 C 93.78 77.85 92.29 77.19 90.76 77.19 Z M 90.76 80.20 C 93.37 80.20 95.48 84.59 95.48 88.24 C 95.48 91.90 93.37 93.43 90.76 93.43 C 88.15 93.43 86.03 91.90 86.03 88.24 C 86.03 84.59 88.15 80.20 90.76 80.20 Z" fill="#6b0600" fill-rule="evenodd" group-id="1,2,9" node-id="367" stroke="none" target-height="19.241028" target-width="15.45105" target-x="83.03381" target-y="77.19464"></path></g><g node-id="447"><path d="M 122.34 80.20 C 124.95 80.20 127.06 84.59 127.06 88.24 C 127.06 91.90 124.95 93.43 122.34 93.43 C 119.73 93.43 117.61 91.90 117.61 88.24 C 117.61 84.59 119.73 80.20 122.34 80.20 Z" fill="#87261a" fill-rule="evenodd" group-id="1,2,10" node-id="372" stroke="none" target-height="13.239502" target-width="9.450684" target-x="117.611206" target-y="80.195435"></path><g node-id="459"><g clip-path="url(#_clip10)" group-id="1,2,10,22" node-id="374"><path d="M 121.44 79.09 C 124.05 79.09 126.16 83.49 126.16 87.14 C 126.16 90.80 124.05 92.33 121.44 92.33 C 118.83 92.33 116.71 90.80 116.71 87.14 C 116.71 83.49 118.83 79.09 121.44 79.09 Z" fill="#d43200" fill-rule="evenodd" group-id="1,2,10,22,43" node-id="378" stroke="none" target-height="13.239502" target-width="9.450684" target-x="116.711426" target-y="79.09247"></path><path d="M 121.94 79.95 C 119.30 82.57 118.75 85.52 118.56 87.70 C 119.63 87.01 121.46 87.31 121.56 89.14 C 121.64 90.72 119.74 91.59 118.91 90.98 C 119.26 92.04 120.15 92.71 121.94 93.71 C 119.33 93.71 117.21 91.66 117.21 88.00 C 117.21 84.35 119.33 79.95 121.94 79.95 Z" fill="#ff6d64" fill-rule="evenodd" group-id="1,2,10,22,44" node-id="383" stroke="none" target-height="13.757935" target-width="4.7280273" target-x="117.2113" target-y="79.95416"></path></g></g><path d="M 122.34 77.19 C 120.81 77.19 119.31 77.85 118.04 79.13 C 116.05 81.11 114.61 84.90 114.61 88.24 C 114.61 91.08 115.56 93.04 116.89 94.35 C 118.29 95.73 120.20 96.44 122.34 96.44 C 124.48 96.44 126.38 95.73 127.78 94.35 C 129.11 93.04 130.06 91.08 130.06 88.24 C 130.06 84.90 128.61 81.11 126.63 79.13 C 125.36 77.85 123.87 77.19 122.34 77.19 Z M 122.34 80.20 C 124.95 80.20 127.06 84.59 127.06 88.24 C 127.06 91.90 124.95 93.43 122.34 93.43 C 119.73 93.43 117.61 91.90 117.61 88.24 C 117.61 84.59 119.73 80.20 122.34 80.20 Z" fill="#6b0600" fill-rule="evenodd" group-id="1,2,10" node-id="387" stroke="none" target-height="19.241028" target-width="15.45105" target-x="114.611084" target-y="77.19464"></path></g><g node-id="448"><path d="M 105.55 43.73 C 108.16 43.73 110.27 48.13 110.27 51.78 C 110.27 55.43 108.16 56.97 105.55 56.97 C 102.94 56.97 100.82 55.43 100.82 51.78 C 100.82 48.13 102.94 43.73 105.55 43.73 Z" fill="#87261a" fill-rule="evenodd" group-id="1,2,11" node-id="392" stroke="none" target-height="13.239502" target-width="9.450684" target-x="100.82422" target-y="43.730896"></path><g node-id="460"><g clip-path="url(#_clip11)" group-id="1,2,11,23" node-id="394"><path d="M 104.65 42.63 C 107.26 42.63 109.38 47.02 109.38 50.67 C 109.38 54.33 107.26 55.87 104.65 55.87 C 102.04 55.87 99.92 54.33 99.92 50.67 C 99.92 47.02 102.04 42.63 104.65 42.63 Z" fill="#d43200" fill-rule="evenodd" group-id="1,2,11,23,45" node-id="398" stroke="none" target-height="13.239502" target-width="9.450684" target-x="99.92444" target-y="42.62793"></path><path d="M 105.15 43.49 C 102.51 46.11 101.96 49.06 101.77 51.23 C 102.85 50.54 104.68 50.85 104.77 52.68 C 104.86 54.26 102.95 55.12 102.13 54.51 C 102.48 55.57 103.37 56.24 105.15 57.25 C 102.54 57.25 100.42 55.19 100.42 51.54 C 100.42 47.88 102.54 43.49 105.15 43.49 Z" fill="#ff6d64" fill-rule="evenodd" group-id="1,2,11,23,46" node-id="403" stroke="none" target-height="13.757935" target-width="4.7280273" target-x="100.42432" target-y="43.489624"></path></g></g><path d="M 105.55 40.73 C 104.02 40.73 102.53 41.39 101.25 42.66 C 99.27 44.65 97.82 48.43 97.82 51.78 C 97.82 54.61 98.78 56.58 100.11 57.88 C 101.51 59.26 103.41 59.97 105.55 59.97 C 107.69 59.97 109.59 59.26 110.99 57.88 C 112.32 56.58 113.28 54.61 113.28 51.78 C 113.28 48.43 111.83 44.65 109.85 42.66 C 108.57 41.39 107.08 40.73 105.55 40.73 Z M 105.55 43.73 C 108.16 43.73 110.27 48.13 110.27 51.78 C 110.27 55.43 108.16 56.97 105.55 56.97 C 102.94 56.97 100.82 55.43 100.82 51.78 C 100.82 48.13 102.94 43.73 105.55 43.73 Z" fill="#6b0600" fill-rule="evenodd" group-id="1,2,11" node-id="407" stroke="none" target-height="19.241028" target-width="15.45105" target-x="97.8241" target-y="40.730103"></path></g><g node-id="449"><path d="M 74.41 3.02 C 74.43 3.17 74.48 5.22 76.62 8.14 C 78.16 10.24 79.13 10.74 79.13 14.39 C 79.13 18.05 77.01 19.58 74.41 19.58 C 71.79 19.58 70.19 18.01 69.68 14.39 C 68.94 9.26 71.28 4.60 74.41 3.02 Z" fill="#d63200" fill-rule="evenodd" group-id="1,2,12" node-id="412" stroke="none" target-height="16.56366" target-width="10.185181" target-x="68.94324" target-y="3.0187378"></path><path d="M 77.36 2.53 C 77.21 1.59 76.61 0.78 75.77 0.35 C 74.91 -0.09 73.90 -0.09 73.05 0.34 C 69.04 2.37 65.77 8.23 66.70 14.82 C 67.16 18.01 68.39 20.02 69.97 21.20 C 71.17 22.10 72.64 22.58 74.41 22.58 C 76.54 22.58 78.45 21.87 79.85 20.50 C 81.18 19.19 82.13 17.22 82.13 14.39 C 82.13 9.72 81.01 9.05 79.04 6.36 C 77.43 4.17 77.38 2.65 77.36 2.53 Z M 74.41 3.02 C 74.43 3.17 74.48 5.22 76.62 8.14 C 78.16 10.24 79.13 10.74 79.13 14.39 C 79.13 18.05 77.01 19.58 74.41 19.58 C 71.79 19.58 70.19 18.01 69.68 14.39 C 68.94 9.26 71.28 4.60 74.41 3.02 Z" fill="#6b0600" fill-rule="evenodd" group-id="1,2,12" node-id="414" stroke="none" target-height="22.674438" target-width="16.36145" target-x="65.76721" target-y="-0.091308594"></path></g><g node-id="450"><path d="M 145.83 145.85 C 145.83 144.57 144.75 143.53 143.42 143.53 L 5.41 143.53 C 4.08 143.53 3.00 144.57 3.00 145.85 L 3.00 146.51 C 3.00 149.99 5.94 152.82 9.55 152.82 L 139.28 152.82 C 142.90 152.82 145.83 149.99 145.83 146.51 L 145.83 145.85 Z" fill="#1383cc" fill-rule="evenodd" group-id="1,2,13" node-id="419" stroke="none" target-height="9.289734" target-width="142.82935" target-x="3.0024414" target-y="143.53253"></path><g node-id="461"><g clip-path="url(#_clip12)" group-id="1,2,13,24" node-id="421"><path d="M 56.47 152.82 C 63.54 152.41 115.81 149.98 128.95 149.98 C 139.23 149.98 140.46 144.86 140.29 143.53 L 143.42 143.53 C 144.75 143.53 145.83 144.57 145.83 145.85 L 145.83 146.51 C 145.83 149.99 142.89 152.82 139.28 152.82 L 56.47 152.82 Z" fill="#000000" fill-opacity="0.3" fill-rule="evenodd" group-id="1,2,13,24,47" node-id="425" stroke="none" target-height="9.289734" target-width="89.35718" target-x="56.474365" target-y="143.53253"></path><path d="M 15.02 152.82 C 12.19 149.79 10.66 146.71 11.07 143.53 L 5.41 143.53 C 4.08 143.53 3.00 144.57 3.00 145.85 L 3.00 146.51 C 3.00 149.99 5.94 152.82 9.55 152.82 L 15.02 152.82 Z" fill="#ffffff" fill-opacity="0.3" fill-rule="evenodd" group-id="1,2,13,24" node-id="428" stroke="none" target-height="9.289734" target-width="12.01416" target-x="3.0024414" target-y="143.53253"></path></g></g><path d="M 148.83 145.85 C 148.83 142.95 146.44 140.53 143.42 140.53 C 143.42 140.53 5.41 140.53 5.41 140.53 C 2.40 140.53 0.01 142.95 0.01 145.85 L 0.01 146.51 C 0.01 151.62 4.25 155.82 9.55 155.82 L 139.28 155.82 C 144.58 155.82 148.83 151.62 148.83 146.51 L 148.83 145.85 Z M 145.83 145.85 C 145.83 144.57 144.75 143.53 143.42 143.53 L 5.41 143.53 C 4.08 143.53 3.00 144.57 3.00 145.85 L 3.00 146.51 C 3.00 149.99 5.94 152.82 9.55 152.82 L 139.28 152.82 C 142.90 152.82 145.83 149.99 145.83 146.51 L 145.83 145.85 Z" fill="#6b0600" fill-rule="evenodd" group-id="1,2,13" node-id="431" stroke="none" target-height="15.293396" target-width="148.82605" target-x="0.0075683594" target-y="140.5307"></path></g><path d="M 74.28 26.39 L 74.28 19.21" fill="none" group-id="1,2,14" node-id="436" stroke="#6b0600" stroke-linecap="round" stroke-width="2.4644783" target-height="7.178711" target-width="0" target-x="74.28406" target-y="19.214355"></path></g></g></svg>