<?xml version="1.0" standalone="no"?><!DOCTYPE svg PUBLIC "-//W3C//DTD SVG 1.1//EN" "http://www.w3.org/Graphics/SVG/1.1/DTD/svg11.dtd"><svg t="1762774036065" class="icon" viewBox="0 0 1024 1024" version="1.1" xmlns="http://www.w3.org/2000/svg" p-id="14810" xmlns:xlink="http://www.w3.org/1999/xlink" width="200" height="200"><path d="M480.284018 454.115556s-99.925333-116.404148-43.899259-139.083852c43.975111-17.796741 43.899259 139.093333 43.899259 139.093333M524.429796 445.345185s-9.642667-159.099259 47.966814-138.685629c45.226667 16.023704-47.966815 138.676148-47.966814 138.676148M558.648462 471.675259s92.34963-128.474074 127.355259-74.619259c27.486815 42.287407-127.345778 74.619259-127.345777 74.619259M567.371425 511.981037s155.031704-42.552889 147.778371 20.944593c-5.688889 49.844148-147.787852-20.954074-147.787852-20.954074M549.944462 550.703407s151.646815 63.004444 103.917037 108.468149c-37.480296 35.688296-103.917037-108.468148-103.917037-108.468149M522.239573 577.042963s74.979556 142.715259 9.765926 149.143704c-51.2 5.05363-9.765926-149.143704-9.765926-149.143704M480.284018 559.483259s-31.838815 163.432296-86.97363 126.198519c-43.282963-29.240889 86.97363-126.198519 86.97363-126.198519M454.162536 533.703111s-126.672593 103.414519-146.944 40.732445c-15.909926-49.21837 146.944-40.732444 146.944-40.732445M454.162536 498.014815s-160.711111 1.934222-136.922074-58.093037c18.678519-47.122963 136.912593 58.093037 136.912593 58.093037" fill="#F0C267" p-id="14811"></path><path d="M367.08461 375.087407s-135.983407-87.182222-83.911111-127.525926c40.884148-31.687111 83.911111 127.525926 83.911111 127.525926M508.055277 313.628444s-35.745185-158.65363 25.581037-148.830814c48.137481 7.708444-25.581037 148.830815-25.581037 148.830814M637.022388 375.087407s86.471111-137.102222 126.482963-84.603259c31.42163 41.225481-126.482963 84.612741-126.482963 84.612741M697.978833 517.243259s157.345185-36.039111 147.598222 25.78963c-7.642074 48.545185-147.598222-25.78963-147.598222-25.78963M628.318388 647.291259s135.973926 87.182222 83.911111 127.535408c-40.884148 31.67763-83.911111-127.535407-83.911111-127.535408M487.347721 708.750222s35.745185 158.663111-25.581037 148.830815c-48.137481-7.708444 25.581037-148.830815 25.581037-148.830815M358.371129 647.291259s-86.471111 137.111704-126.482963 84.60326c-31.42163-41.216 126.482963-84.603259 126.482963-84.60326M306.128166 505.144889s-157.345185 36.02963-147.598222-25.78963c7.642074-48.545185 147.598222 25.78963 147.598222 25.78963" fill="#F19849" p-id="14812"></path><path d="M358.371129 805.338074s-14.298074 187.979852-83.171556 153.931852c-54.072889-26.737778 83.171556-153.931852 83.171556-153.931852M219.05024 647.291259S93.155129 794.88 56.537647 725.172148c-28.73837-54.71763 162.512593-77.880889 162.512593-77.880889M184.215277 450.49363s-175.710815 42.477037-164.977778-29.771852c8.419556-56.737185 164.977778 29.771852 164.977778 29.771852M288.710684 269.729185s-173.833481-70.760296-120.414814-124.814222c41.936593-42.439111 120.414815 124.814222 120.414814 124.814222M469.835425 181.921185S373.446684 19.626667 446.985055 6.703407c57.742222-10.145185 22.85037 175.217778 22.85037 175.217778M663.153351 217.040593s14.288593-187.97037 83.171556-153.922371c54.063407 26.737778-83.171556 153.92237-83.171556 153.922371M802.47424 375.087407s125.895111-147.579259 162.512593-77.880888c28.73837 54.727111-162.512593 77.89037-162.512593 77.89037" fill="#EC7351" p-id="14813"></path><path d="M831.354833 572.036741S1011.777944 531.930074 1000.750981 600.158815C992.10387 653.729185 831.354833 572.036741 831.354833 572.036741" fill="#EC7351" p-id="14814"></path><path d="M732.813796 752.658963s173.833481 70.750815 120.414814 124.804741c-41.927111 42.439111-120.414815-124.804741-120.414814-124.804741M542.985055 840.466963s96.388741 162.285037 22.85037 175.208296c-57.742222 10.145185-22.85037-175.217778-22.85037-175.217778" fill="#EC7351" p-id="14815"></path></svg>