<?xml version="1.0" standalone="no"?><!DOCTYPE svg PUBLIC "-//W3C//DTD SVG 1.1//EN" "http://www.w3.org/Graphics/SVG/1.1/DTD/svg11.dtd"><svg t="1762774009245" class="icon" viewBox="0 0 1088 1024" version="1.1" xmlns="http://www.w3.org/2000/svg" p-id="12292" xmlns:xlink="http://www.w3.org/1999/xlink" width="212.5" height="200"><path d="M528.991209 435.636191c-0.50423-4.117882-0.840384-7.563457-1.176537-11.345185s-0.50423-7.39538-0.672308-11.177108v-22.102101a379.853598 379.853598 0 0 1 4.117882-44.540355 279.763855 279.763855 0 0 1 10.504801-44.288241 249.341952 249.341952 0 0 1 77.987641-118.494153 285.730582 285.730582 0 0 1 85.130906-48.574199h0.672307a42.523434 42.523434 0 0 1 29.58152 79.752448 44.120163 44.120163 0 0 1-7.899611 2.184998 208.247171 208.247171 0 0 0-67.987071 22.774409 185.724878 185.724878 0 0 0-29.833634 20.673448A195.809487 195.809487 0 0 0 603.617314 287.224365a221.777355 221.777355 0 0 0-21.177678 32.18671 272.284437 272.284437 0 0 0-16.219413 36.304591A304.219032 304.219032 0 0 0 554.791 394.457372c-1.428653 6.723073-2.773267 13.278068-3.781728 20.169217-0.50423 3.445575-1.008461 6.723073-1.260576 10.168647s-0.672307 6.891149-0.840384 9.832494v0.50423a9.916532 9.916532 0 0 1-10.924993 9.328264 10.168647 10.168647 0 0 1-9.328263-8.824033z" fill="#FFC229" p-id="12293"></path><path d="M584.624634 491.101539c2.437114-2.941344 4.706151-5.378458 7.059227-8.40384s4.706151-5.042304 7.227303-7.479419c4.874228-4.958266 10.00057-9.748455 15.210951-14.286529a313.29518 313.29518 0 0 1 33.615363-25.631714 270.687707 270.687707 0 0 1 78.57591-36.640745 238.753113 238.753113 0 0 1 44.792471-7.647495c3.781728-0.50423 7.731533 0 11.513261-0.50423h11.513262c3.949805 0 7.731533 0 11.681338 0.672307l11.597301 1.260576a262.031752 262.031752 0 0 1 88.324365 30.085749 42.439395 42.439395 0 1 1-40.758627 74.794182 33.615363 33.615363 0 0 1-6.134804-3.949805l-6.554996-5.294419a79.500333 79.500333 0 0 0-6.554995-5.042305 157.824127 157.824127 0 0 0-13.782299-9.244225 166.227968 166.227968 0 0 0-29.665558-14.286529l-7.89961-2.60519c-2.605191-0.840384-5.462496-1.512691-8.40384-2.10096l-4.285959-1.0925-4.117882-0.840384c-2.773267-0.50423-5.546535-1.176538-8.403841-1.428653a168.076813 168.076813 0 0 0-34.455746-1.176537 224.550622 224.550622 0 0 0-70.760339 16.807681 310.942104 310.942104 0 0 0-34.119593 16.807681c-5.630573 3.109421-11.009031 6.386919-16.303451 10.000571l-7.815571 5.462496a80.67687 80.67687 0 0 0-7.39538 5.546535h-0.504231a10.00057 10.00057 0 0 1-13.950375-1.59673 9.748455 9.748455 0 0 1 0.50423-12.353646z" fill="#FFE045" p-id="12294"></path><path d="M580.002522 557.912072c3.613651 1.176538 6.554996 2.10096 9.832494 3.277498l9.49634 3.445575c6.30288 2.437114 12.521723 5.126343 18.572487 7.89961a335.565357 335.565357 0 0 1 35.968438 19.160757 290.184618 290.184618 0 0 1 64.625535 53.028234 230.013119 230.013119 0 0 1 26.472098 34.791901A225.895237 225.895237 0 0 1 764.887016 719.601967c0.672307 1.764807 1.512691 3.445575 2.100961 5.210381l1.848845 5.462496c1.176538 3.613651 2.437114 7.227303 3.445574 10.840955 1.764807 7.39538 3.949805 14.79076 5.126343 22.270177a287.999619 287.999619 0 0 1 4.20192 45.632855 42.523434 42.523434 0 1 1-84.962829 2.353075 57.230155 57.230155 0 0 1 0.588269-8.40384v-0.840384a181.43892 181.43892 0 0 0 3.949805-31.68248c0.50423-5.378458 0-10.672878 0-15.883258 0-2.605191-0.50423-5.29442-0.672307-8.403841v-3.949805c0-1.260576-0.50423-2.605191-0.672307-3.865767a159.672972 159.672972 0 0 0-8.403841-31.682479 176.480654 176.480654 0 0 0-14.454606-30.758057 246.064454 246.064454 0 0 0-44.624394-55.465348 349.011502 349.011502 0 0 0-28.236904-23.782869c-4.958266-3.613651-10.00057-7.39538-15.29499-10.672878-2.605191-1.680768-5.210381-3.445575-7.815572-4.958266s-5.462496-3.277498-7.89961-4.538074h-0.504231a10.084609 10.084609 0 0 1-3.949805-13.614222 9.076148 9.076148 0 0 1 11.345185-4.958266z m-116.729347-76.811103c-2.269037-2.437114-4.874228-5.210381-7.563456-7.731534s-5.378458-5.042304-8.403841-7.731533c-5.462496-5.042304-11.177108-9.832494-16.807681-14.370568A341.616123 341.616123 0 0 0 395.118028 425.63562 327.245555 327.245555 0 0 0 356.796514 404.878134a258.081946 258.081946 0 0 0-39.750166-14.118452 183.876034 183.876034 0 0 0-40.170358-6.554996 175.64027 175.64027 0 0 0-39.414013 1.428653 41.094781 41.094781 0 0 0-4.790189 0.672307l-4.706151 1.008461c-3.193459 0.672307-6.470957 1.092499-9.580378 1.932883a181.018728 181.018728 0 0 0-18.48845 5.79865 225.306968 225.306968 0 0 0-35.128054 16.219413l-1.00846 0.50423a42.523434 42.523434 0 1 1-40.422474-74.87822 52.608042 52.608042 0 0 1 6.723073-2.941344A330.270938 330.270938 0 0 1 181.660475 320.839728a256.485217 256.485217 0 0 1 26.38806-3.109422c4.454036 0 8.908071 0 13.278068-0.50423h13.362107a249.678106 249.678106 0 0 1 52.019773 7.39538 264.636942 264.636942 0 0 1 48.238046 16.807681A308.841144 308.841144 0 0 1 378.310346 366.388544 363.718223 363.718223 0 0 1 416.547821 396.474293a401.619545 401.619545 0 0 1 33.615363 34.28767c5.126343 6.134804 10.168647 12.185569 15.126913 18.404411 2.437114 3.109421 4.706151 6.386919 7.059226 9.49634l6.89115 10.084609a9.916532 9.916532 0 0 1-15.631144 12.101531z" fill="#FFC229" p-id="12295"></path><path d="M444.280496 298.905703c-1.344615-4.958266-2.941344-10.336724-4.79019-15.547105s-3.613651-10.420762-5.714611-15.631143c-4.117882-10.336724-8.403841-20.337294-13.446145-30.169788a377.500522 377.500522 0 0 0-33.615363-55.38131c-6.386919-8.403841-13.109991-16.807681-20.169217-24.623253s-14.454606-15.210952-22.18614-22.102101a303.378648 303.378648 0 0 0-49.078429-36.304592 42.607472 42.607472 0 0 1 43.699971-73.197452 43.699971 43.699971 0 0 1 7.89961 6.050765l0.756346 0.840384a383.971479 383.971479 0 0 1 48.910353 58.826885c7.059226 10.504801 13.530183 21.177678 19.580948 32.018633s11.345185 22.018063 16.051336 33.615362A420.192033 420.192033 0 0 1 453.944912 225.708251c2.605191 11.681339 4.874228 23.278639 6.554996 35.128054 0.840384 5.882688 1.512691 11.849415 2.10096 17.732104s1.008461 11.681339 1.008461 18.236334A10.00057 10.00057 0 0 1 453.944912 306.97339a9.832494 9.832494 0 0 1-9.832493-7.395379zM291.246557 549.256116c-4.874228 0.756346-10.672878 1.764807-15.883259 2.941345s-10.672878 2.437114-16.051335 3.949805c-10.672878 2.941344-21.177678 6.386919-31.346326 10.168647a361.365148 361.365148 0 0 0-58.826884 27.900751C159.810489 599.595122 151.406649 605.561849 143.002808 611.612614s-16.807681 12.773838-24.455176 19.49691a310.942104 310.942104 0 0 0-41.346896 44.960548A42.691511 42.691511 0 1 1 8.541358 624.722606a43.111703 43.111703 0 0 1 6.891149-7.227303l0.840384-0.672308a376.5761 376.5761 0 0 1 63.533035-42.019203c11.177108-5.882688 22.438255-11.09307 33.615363-15.883259s23.110562-8.908071 34.7919-12.521722A411.788192 411.788192 0 0 1 219.729873 530.935744a337.246125 337.246125 0 0 1 35.632285-2.773268h17.90018c6.134804 0 11.765377 0 18.152296 0.924423a10.084609 10.084609 0 0 1 0.672307 19.917102h-0.840384z m514.315048 33.615363c6.218842 1.008461 11.765377 2.10096 17.564027 3.445575s11.261146 2.773267 16.807682 4.454035c11.261146 3.109421 22.270178 7.059226 33.615362 11.261147a373.802832 373.802832 0 0 1 63.869189 32.354786 366.155337 366.155337 0 0 1 57.734385 45.128625 373.634755 373.634755 0 0 1 48.658238 57.48227v0.840384a42.691511 42.691511 0 1 1-70.340146 48.406122 38.657667 38.657667 0 0 1-4.79019-9.244225 306.824222 306.824222 0 0 0-26.135944-52.776119 299.680958 299.680958 0 0 0-37.901321-48.322084 339.851316 339.851316 0 0 0-48.069969-41.178819c-8.403841-6.218842-17.732104-11.933454-27.228444-17.39595L815.31006 609.259539c-4.790189-2.437114-9.832494-4.706151-14.454606-6.554996h-0.672307a10.00057 10.00057 0 0 1-5.378458-13.109991 10.420762 10.420762 0 0 1 11.009031-6.050766z" fill="#1296db" p-id="12296"></path><path d="M522.688329 674.809496c2.941344 25.211522 6.134804 50.002852 8.908071 75.130335s5.042304 50.423044 6.723072 76.222835c3.445575 51.011313 4.454036 102.190702 4.874228 153.117977a42.523434 42.523434 0 1 1-84.962829 0.672307 45.548816 45.548816 0 0 1 0.924423-9.076148c10.252686-48.742276 19.917102-97.652628 27.144405-146.731058 3.613651-24.287099 6.891149-49.498621 9.664417-74.037836s4.958266-49.918813 7.227303-74.962259a10.00057 10.00057 0 0 1 11.009031-9.076147 9.832494 9.832494 0 0 1 8.40384 8.40384z m221.777355-356.658997c5.210381-3.781728 10.00057-6.723073 15.29499-9.916532s10.168647-6.050765 15.379028-8.403841c10.504801-5.714612 21.177678-10.840954 32.18671-15.631144a422.545108 422.545108 0 0 1 68.743416-22.774408c12.017492-2.773267 24.203061-5.126343 36.304592-6.723072s25.211522-2.773267 37.229014-3.277498a388.761669 388.761669 0 0 1 76.222835 4.70615h0.756345a42.691511 42.691511 0 0 1-13.614221 84.038407 37.565168 37.565168 0 0 1-9.664417-2.773267 299.260766 299.260766 0 0 0-89.416865-22.606332c-10.504801-1.008461-21.009602-1.680768-31.850556-1.680768a383.551287 383.551287 0 0 0-64.709573 5.378458 328.338054 328.338054 0 0 0-32.18671 7.059226l-15.883258 4.622113c-5.29442 1.680768-10.672878 3.613651-15.29499 5.462496h-0.504231a10.084609 10.084609 0 0 1-12.941914-5.630573 10.840954 10.840954 0 0 1 3.949805-11.849415z" fill="#1296db" p-id="12297"></path><path d="M477.055474 569.08918c-2.941344 0.840384-6.386919 1.932883-9.664417 3.109421s-6.554996 2.269037-9.832493 3.613652c-6.554996 2.437114-12.773838 5.210381-19.244795 8.403841a298.840574 298.840574 0 0 0-36.220554 19.49691 247.661184 247.661184 0 0 0-60.255537 51.515543 178.497575 178.497575 0 0 0-34.959977 65.045727 174.463732 174.463732 0 0 0-6.386919 35.464207 159.672972 159.672972 0 0 0-0.672307 18.068258 80.424755 80.424755 0 0 0 0 8.992109l0.840384 8.655956v1.680768a42.523434 42.523434 0 0 1-84.878791 4.790189 42.943626 42.943626 0 0 1 0-8.40384l1.59673-12.521723c0.672307-4.033844 1.008461-8.403841 2.016922-12.269607a245.560224 245.560224 0 0 1 6.218842-23.698831 240.097727 240.097727 0 0 1 79.920524-123.536457A290.268656 290.268656 0 0 1 386.714187 571.022064a343.128814 343.128814 0 0 1 43.195741-13.614222c7.227303-1.764807 14.622683-3.445575 22.018063-4.706151a234.752885 234.752885 0 0 1 22.606331-3.193459 10.084609 10.084609 0 0 1 10.840954 9.076148 9.832494 9.832494 0 0 1-7.227303 10.5048z" fill="#FFE045" p-id="12298"></path><path d="M451.171645 31.243379a29.749596 29.749596 0 0 0 59.415153 0 29.749596 29.749596 0 1 0-59.415153 0z" fill="#1296db" p-id="12299"></path><path d="M1026.330499 610.099923a27.060367 27.060367 0 1 0 27.060367-27.060367 27.060367 27.060367 0 0 0-27.060367 27.060367z" fill="#FFC229" p-id="12300"></path><path d="M342.173832 986.507946a21.849986 21.849986 0 1 0 21.849985-21.849986 21.765947 21.765947 0 0 0-21.849985 21.849986zM1041.03722 217.472487a21.849986 21.849986 0 0 0 43.699972 0 21.849986 21.849986 0 0 0-43.699972 0z" fill="#1296db" p-id="12301"></path><path d="M55.602865 783.975386a20.673448 20.673448 0 1 0 41.346896 0 20.673448 20.673448 0 1 0-41.346896 0z" fill="#FFC229" p-id="12302"></path></svg>