<?xml version="1.0" standalone="no"?><!DOCTYPE svg PUBLIC "-//W3C//DTD SVG 1.1//EN" "http://www.w3.org/Graphics/SVG/1.1/DTD/svg11.dtd"><svg t="1762773949967" class="icon" viewBox="0 0 1024 1024" version="1.1" xmlns="http://www.w3.org/2000/svg" p-id="9482" xmlns:xlink="http://www.w3.org/1999/xlink" width="200" height="200"><path d="M265.921067 222.2448c64.295467-24.1408 103.853333-16.954133 128.381333-5.306667 30.689067 14.573333 62.237867 47.710933 71.974933 39.8576 1.5632-1.2608 2.7792-2.924267 2.4048-8.727466-1.913067-29.649067 3.995733-64.08 9.1712-59.298134 5.175467 4.781867 45.345067 112.639467 43.432 130.442134-5.908267 54.986133 0.7488 88.264-16.2592 98.136533-23.907733 13.877867-84.318933-16.509333-239.105066-195.104z" fill="#C02110" p-id="9483"></path><path d="M152.346667 417.3488s-34.430933 55.956267-21.519467 65.2816 45.190933-17.215467 73.165867-26.5408c27.975467-9.325333 95.402667-10.042667 107.597333 2.869333 12.194133 12.911467 18.848533 32.278933 14.086933 34.430934s-154.680533 67.427733-161.136533 67.427733-46.6256 59.537067-57.385067 6.456c-10.759467-53.081067-8.608-131.334933 27.975467-142.061333 36.582933-10.726933 17.215467-7.863467 17.215467-7.863467z" fill="#C02110" p-id="9484"></path><path d="M254.922667 713.605333s26.5408 99.706667 58.1024 102.576c31.5616 2.869333-7.771733-55.653333 15.840533-111.394133s71.672-83.715733 74.541333-79.411733 3.586667 88.229867 3.586667 94.685333-15.063467 122.6608-14.346133 125.530133-14.346133 24.0928-22.954134 27.4688-97.562667-14.514667-97.562666-14.514666-23.664-115.5296-17.208-144.939734z" fill="#C02110" p-id="9485"></path><path d="M527.941867 793.944533c0.0112-3.864 78.464533 38.0176 111.461333 26.5408 32.996267-11.477333-13.4672-82.490133-9.9616-79.980266 3.5056 2.509867 124.0144 62.047467 124.0144 62.047466s-45.190933 90.381867-48.7776 91.0992c-3.586133 0.717333-177.032533 3.585067-176.736533-99.7072z" fill="#C02110" p-id="9486"></path><path d="M632.9472 559.382933s93.968 49.494933 172.155733 20.802134 81.056533-112.618667 96.837334-95.402667 23.671467 80.3392 17.215466 86.077867c-6.456 5.738667-118.3568 55.233067-120.5088 55.233066s-133.420267 8.607467-165.699733-66.7104z" fill="#C02110" p-id="9487"></path><path d="M713.525867 150.939733c5.738667 2.869333 21.041067 77.043733 11.4768 128.690134s-89.903467 143.462933-111.901334 153.0272 56.4288 0.956267 56.4288 0.956266 112.198933-138.091733 112.528-142.211733c0.329067-4.120533 10.0464-118.295467-14.908266-125.9472-24.954133-7.6512-53.624-14.514667-53.624-14.514667z" fill="#C02110" p-id="9488"></path><path d="M550.507733 365.009067c4.6144 1.330667 40.007467-68.098667 20.289067-86.538667-6.253333-5.848-18.274133-6.778133-22.773333-2.0704-5.130667 5.368533 1.517333 15.9792 4.968533 33.1248 6.5232 32.405867-5.104533 54.728533-2.484267 55.484267zM403.955733 405.155733c3.459733-3.330667-38.9712-68.696533-64.8-60.84-8.190933 2.491733-15.006933 12.4368-13.179733 18.686934 2.083733 7.128 14.597333 6.675733 31.1712 12.2592 31.325867 10.554133 44.844267 31.785067 46.808533 29.893866zM365.448 552.1472c-1.154667-4.661333-78.978667-0.597867-85.089067 25.698667-1.9376 8.339733 3.2672 19.214933 9.5936 20.757333 7.214933 1.758933 13.08-9.304 26.202667-20.8656 24.8032-21.852267 49.9488-22.944 49.2928-25.5904zM473.492267 658.991467c-4.6144-1.330667-40.007467 68.098133-20.289067 86.538666 6.253333 5.848 18.274133 6.778133 22.773333 2.0704 5.130667-5.368533-1.517333-15.979733-4.968533-33.1248-6.5232-32.4064 5.104533-54.729067 2.484267-55.484266zM620.044267 618.844267c-3.459733 3.330667 38.9712 68.696533 64.8 60.84 8.191467-2.491733 15.006933-12.4368 13.179733-18.686934-2.083733-7.128-14.597333-6.675733-31.1712-12.2592-31.325867-10.554133-44.844267-31.785067-46.808533-29.893866zM658.552 471.8528c1.154667 4.661333 78.978667 0.597867 85.089067-25.698667 1.9376-8.339733-3.2672-19.214933-9.5936-20.757333-7.214933-1.758933-13.08 9.304-26.202667 20.8656-24.8032 21.852267-49.9488 22.944-49.2928 25.5904z" fill="#FCD22B" p-id="9489"></path></svg>