<?xml version="1.0" standalone="no"?><!DOCTYPE svg PUBLIC "-//W3C//DTD SVG 1.1//EN" "http://www.w3.org/Graphics/SVG/1.1/DTD/svg11.dtd"><svg t="1762773971467" class="icon" viewBox="0 0 1024 1024" version="1.1" xmlns="http://www.w3.org/2000/svg" p-id="10869" xmlns:xlink="http://www.w3.org/1999/xlink" width="200" height="200"><path d="M272 752m-80 0a80 80 0 1 0 160 0 80 80 0 1 0-160 0Z" fill="#56ACF2" p-id="10870"></path><path d="M256 672h32v-192H256v192z m0 352h32v-192H256v192z m-256-256h192v-32H0v32z m352-32v32h192v-32h-192z" fill="#00B6CB" p-id="10871"></path><path d="M371.2 499.2L291.2 672l28.8 12.8 80-172.8-28.8-12.8zM144 992l28.8 12.8L252.8 832l-28.8-12.8L144 992z m64-288L32 624l-12.8 28.8L192 732.8l16-28.8z m144 67.2l-12.8 28.8 172.8 80 12.8-28.8-172.8-80z" fill="#00B6CB" p-id="10872"></path><path d="M512 624l-16-28.8-163.2 99.2 16 28.8 163.2-99.2z m-480 256l16 28.8 163.2-99.2-16-28.8L32 880z m86.4-352l99.2 163.2 25.6-16L144 512l-25.6 16z m182.4 300.8l99.2 163.2 25.6-16-99.2-163.2-25.6 16z" fill="#00B6CB" p-id="10873"></path><path d="M160 512H96v64h64v-64z m128-32H224v64h64v-64z m-256 192h64v-64H32v64z m32 64H0v64h64v-64z m352-224h-64v64h64v-64z m0 160h64v-64h-64v64z m64 32v64h64v-64h-64zM128 992h64v-64H128v64z m128 32h64v-64H256v64z m-224-96h64v-64H32v64z m352 64h64v-64h-64v64z m64-96h64v-64h-64v64z" fill="#56ACF2" p-id="10874"></path><path d="M208 80m-48 0a48 48 0 1 0 96 0 48 48 0 1 0-96 0Z" fill="#89A2F6" p-id="10875"></path><path d="M304 380.8l-96-320-32 6.4L256 326.4 108.8 179.2l-25.6 25.6 192 192L288 384z" fill="#89A2F6" p-id="10876"></path><path d="M80 208m-48 0a48 48 0 1 0 96 0 48 48 0 1 0-96 0Z" fill="#89A2F6" p-id="10877"></path><path d="M640 384m-128 0a128 128 0 1 0 256 0 128 128 0 1 0-256 0Z" fill="#FED500" p-id="10878"></path><path d="M608 256h32V32h-32v224z m32 480h32v-224h-32v224zM288 416h224v-32H288v32z m480-96v32h224v-32h-224z" fill="#FF806C" p-id="10879"></path><path d="M777.6 57.6L672 256l28.8 16 105.6-198.4-28.8-16z m-304 636.8l28.8 16L608 512l-28.8-16-105.6 198.4z m54.4-371.2l-198.4-105.6-16 28.8L512 352l16-28.8z m256 64l-16 28.8 198.4 105.6 16-28.8-198.4-105.6z" fill="#FF806C" p-id="10880"></path><path d="M937.6 195.2l-16-25.6L732.8 288l16 25.6 188.8-118.4zM342.4 566.4l16 25.6 188.8-118.4-16-25.6-188.8 118.4z m83.2-467.2L544 288l25.6-16-118.4-188.8-25.6 16zM736 473.6l118.4 188.8 25.6-16-118.4-188.8-25.6 16z" fill="#FF806C" p-id="10881"></path><path d="M608 64h64V0h-64v64z m224-32h-64v64h64V32z m128 128h-64v64h64V160z m-640 192H256v64h64v-64z m640-32v64h64v-64h-64zM480 32h-64v64h64V32z m-128 160H288v64h64V192z m256 544h64v-64h-64v64z m-160-32h64v-64h-64v64z m-128-128h64v-64h-64v64z m480 128h64v-64h-64v64z m128-160h64v-64h-64v64z" fill="#FED500" p-id="10882"></path></svg>